# xmcd
#
# Track frame offsets: 
#        150
#        22785
#        41775
#        55325
#        70055
#        83957
#        101440
#        120375
#        133870
#
# Disc length: 1991 seconds
#
# Revision: 5
# Processed by: cddbd v1.5.2PL0 Copyright (c) Steve Scherf et al.
# Submitted via: ExactAudioCopy v1.0b3
#
DISCID=7107c509
DTITLE=Wild Cherry - Wild Cherry
DYEAR=1976
DGENRE=Funk
TTITLE0=Play That Funky Music
TTITLE1=The Lady Wants Your Money
TTITLE2=99½
TTITLE3=Don’t Go Near The Water
TTITLE4=Nowhere To Run
TTITLE5=I Feel Sanctified
TTITLE6=Hold On
TTITLE7=Get It Up
TTITLE8=What In The Funk Do You See
EXTD=
EXTT0=
EXTT1=
EXTT2=
EXTT3=
EXTT4=
EXTT5=
EXTT6=
EXTT7=
EXTT8=
PLAYORDER=
